<?xml version="1.0" encoding="UTF-8" standalone="no"?>
<svg
   xmlns:osb="http://www.openswatchbook.org/uri/2009/osb"
   xmlns:dc="http://purl.org/dc/elements/1.1/"
   xmlns:cc="http://creativecommons.org/ns#"
   xmlns:rdf="http://www.w3.org/1999/02/22-rdf-syntax-ns#"
   xmlns:svg="http://www.w3.org/2000/svg"
   xmlns="http://www.w3.org/2000/svg"
   xmlns:sodipodi="http://sodipodi.sourceforge.net/DTD/sodipodi-0.dtd"
   xmlns:inkscape="http://www.inkscape.org/namespaces/inkscape"
   width="412"
   height="300"
   id="svg2"
   version="1.1"
   inkscape:version="1.0.2-2 (e86c870879, 2021-01-15)"
   sodipodi:docname="left_all.svg"
   inkscape:export-filename="C:\work\bcore4\resource\images\capture_ring_left.png"
   inkscape:export-xdpi="90"
   inkscape:export-ydpi="90">
  <defs
     id="defs4">
    <linearGradient
       id="linearGradient5225"
       osb:paint="solid">
      <stop
         style="stop-color:#000000;stop-opacity:1;"
         offset="0"
         id="stop5227" />
    </linearGradient>
    <linearGradient
       id="linearGradient5207"
       osb:paint="solid">
      <stop
         style="stop-color:#000000;stop-opacity:1;"
         offset="0"
         id="stop5209" />
    </linearGradient>
  </defs>
  <sodipodi:namedview
     id="base"
     pagecolor="#ffffff"
     bordercolor="#666666"
     borderopacity="1.0"
     inkscape:pageopacity="0.0"
     inkscape:pageshadow="2"
     inkscape:zoom="1.6819444"
     inkscape:cx="170.98709"
     inkscape:cy="129.24474"
     inkscape:document-units="px"
     inkscape:current-layer="g3851"
     showgrid="false"
     inkscape:window-width="1366"
     inkscape:window-height="705"
     inkscape:window-x="-8"
     inkscape:window-y="-8"
     inkscape:window-maximized="1"
     inkscape:document-rotation="0" />
  <metadata
     id="metadata7">
    <rdf:RDF>
      <cc:Work
         rdf:about="">
        <dc:format>image/svg+xml</dc:format>
        <dc:type
           rdf:resource="http://purl.org/dc/dcmitype/StillImage" />
        <dc:title></dc:title>
      </cc:Work>
    </rdf:RDF>
  </metadata>
  <g
     inkscape:label="CaptureRingLeft"
     inkscape:groupmode="layer"
     id="g3880"
     transform="translate(0,-752.36218)"
     style="display:inline">
    <path
       sodipodi:nodetypes="ccccccccccsc"
       inkscape:connector-curvature="0"
       id="path3882"
       d="m 58.886456,815.75989 c 1.45173,0.12341 2.89403,0.6939 4.21875,1.6875 0.01,0.0111 0.0214,0.0201 0.0312,0.0312 1.23324,1.39002 2.47849,3.02966 3.6875,4.90625 0.78484,1.8147 1.33777,4.01145 1.5625,6.625 1.75739,14.61094 5.83514,28.90091 9.9375,43 3.59731,4.92165 2.06783,15.13289 4.79834,18.74146 -8.35591,9.10009 -13.20474,15.26659 -22.86377,15.51953 -1.02733,-10.42497 -5.26672,-24.05031 -5.52832,-34.60474 -1.04028,-14.61077 -2.39313,-29.18796 -5.09375,-43.59375 -0.5609,-8.259 4.31412,-12.7321 9.25,-12.3125 z"
       style="fill:#44e87e;fill-opacity:1;stroke:#44e87e;stroke-width:5.98758;stroke-linecap:round;stroke-linejoin:round;stroke-miterlimit:4;stroke-dasharray:none;stroke-opacity:1" />
  </g>
  <g
     inkscape:label="CapturedMiddleLeft"
     inkscape:groupmode="layer"
     id="g3876"
     transform="translate(0,-752.36218)"
     style="display:inline">
    <path
       sodipodi:nodetypes="sccccscccs"
       style="fill:#44e87e;fill-opacity:1;stroke:#44e87e;stroke-width:5.98758;stroke-linecap:round;stroke-linejoin:round;stroke-miterlimit:4;stroke-dasharray:none;stroke-opacity:1"
       d="m 96.833954,799.79969 c 4.419446,0.24776 8.894596,2.96154 9.531246,7.625 0.57603,14.48447 2.5765,28.96769 2.625,43.4375 0.24011,9.54059 3.00172,18.81924 2.28125,28.4375 -0.019,2.05267 -0.0457,4.14284 0.35898,5.41466 -0.35073,4.70285 0.74852,5.11664 -12.804886,6.24162 -12.31076,1.02183 -14.08499,1.83281 -14.125,-12.71878 -0.0359,-6.69274 -0.0102,-13.4459 1.35216,-20.0625 1.04094,-17.04594 2.03044,-34.10283 1.65625,-51.1875 0.35951,-5.20788 4.70555,-7.43526 9.125,-7.1875 z"
       id="path3878"
       inkscape:connector-curvature="0" />
  </g>
  <g
     inkscape:label="CaptureThumbLeft"
     inkscape:groupmode="layer"
     id="g3872"
     transform="translate(0,-752.36218)"
     style="display:inline">
    <path
       sodipodi:nodetypes="scccccccs"
       inkscape:connector-curvature="0"
       id="path3874"
       d="m 188.25408,882.09509 c 2.02316,0.0135 4.03453,0.83489 5.90625,2.78125 3.45188,9.45854 -6.464,13.99009 -7.1875,21.65625 -0.213,7.02295 -3.65377,14.03774 -5.96875,20.96875 -2.45446,4.69538 -4.5396,9.53499 -6.4375,14.4375 -9.44423,-3.64748 -9.85701,-3.89189 -12.87553,-6.83198 -2.3138,-2.66055 -5.21178,-7.15421 -4.78072,-7.94927 3.07802,-13.6317 10.29882,-24.1762 15.125,-32.875 3.84291,-5.08139 10.14928,-12.22796 16.21875,-12.1875 z"
       style="fill:#44e87e;fill-opacity:1;stroke:#44e87e;stroke-width:5.98758;stroke-linecap:round;stroke-linejoin:round;stroke-miterlimit:4;stroke-dasharray:none;stroke-opacity:1" />
  </g>
  <g
     inkscape:label="CaptureIndexLeft"
     inkscape:groupmode="layer"
     id="g3868"
     transform="translate(0,-752.36218)"
     style="display:inline">
    <path
       sodipodi:nodetypes="sccccscccccs"
       inkscape:connector-curvature="0"
       id="path3870"
       d="m 141.37007,809.29114 c 0.36644,0.007 0.76098,0.0219 1.15625,0.0625 11.03429,3.28108 6.62587,17.16919 7.46875,25.75 -1.49062,11.03515 -1.73107,22.17055 -2.3125,33.28125 -0.55475,8.06008 -2.89391,15.74666 -4.46875,23.625 -5.76979,5.66286 -11.14015,4.10386 -16.2492,2.52565 -4.66695,-1.44165 -8.52333,-2.01601 -10.2508,-8.8694 0.61783,-1.07736 1.1374,-2.62618 1.4375,-4.75 3.38549,-16.18358 10.80174,-31.37638 12.0625,-48.03125 1.05307,-4.22059 0.95335,-10.61291 2.28125,-15.6875 1.98687,-2.89033 4.06141,-5.43838 6.15625,-7.59375 0.80796,-0.21866 1.70879,-0.33034 2.71875,-0.3125 z"
       style="fill:#44e87e;fill-opacity:1;stroke:#44e87e;stroke-width:5.98758;stroke-linecap:round;stroke-linejoin:round;stroke-miterlimit:4;stroke-dasharray:none;stroke-opacity:1" />
  </g>
  <g
     style="display:inline"
     transform="translate(0,-752.36218)"
     id="g3851"
     inkscape:groupmode="layer"
     inkscape:label="CaptureRingRight">
    <path
       style="fill:#44e87e;fill-opacity:1;stroke-width:0.59455"
       d="m 38.938216,160.90453 c -0.541103,-1.88027 -3.333659,-10.10735 -6.205682,-18.28242 -6.386972,-18.18018 -9.491828,-27.73765 -9.48889,-29.20902 0.0026,-1.3152 2.117553,-4.94252 3.491699,-5.98864 3.695799,-2.81355 6.410856,1.0805 12.933839,18.55027 1.587281,4.25103 5.473621,12.89026 8.636312,19.1983 l 5.750347,11.46915 -1.583923,1.47603 c -0.871157,0.81182 -2.007688,1.87118 -2.525623,2.35414 -0.517935,0.48295 -1.253691,0.8781 -1.635013,0.8781 -0.381321,0 -0.693312,0.25833 -0.693312,0.57407 0,0.31574 -1.337737,0.75153 -2.97275,0.96842 -1.635012,0.21689 -2.972749,0.62743 -2.972749,0.91231 0,0.28487 -0.393848,0.51795 -0.875217,0.51795 -0.555047,0 -1.235115,-1.2506 -1.859038,-3.41866 z"
       id="path1596"
       transform="translate(0,752.36218)" />
  </g>
  <g
     style="display:inline"
     transform="translate(0,-752.36218)"
     id="g3786"
     inkscape:groupmode="layer"
     inkscape:label="CapturedMiddleRight" />
  <g
     style="display:inline"
     transform="translate(0,-752.36218)"
     id="g3835"
     inkscape:groupmode="layer"
     inkscape:label="CaptureThumbRight" />
  <g
     style="display:inline"
     transform="translate(0,-752.36218)"
     id="g3819"
     inkscape:groupmode="layer"
     inkscape:label="CaptureIndexRight" />
  <g
     inkscape:label="Hands"
     inkscape:groupmode="layer"
     id="layer1"
     transform="translate(0,-752.36218)"
     style="display:inline">
    <g
       id="g5262"
       transform="matrix(1.1728508,0,0,1.1728508,-342.9488,412.75912)">
      <g
         style="fill:none;stroke:#989898;stroke-linecap:round;stroke-linejoin:round;stroke-opacity:1"
         inkscape:label="Ebene 1"
         id="layer1-9"
         transform="matrix(1.0067989,0,0,1.0067989,124.86336,-414.10298)" />
    </g>
  </g>
</svg>
