<?xml version="1.0" encoding="UTF-8" standalone="no"?>
<svg
   xmlns:osb="http://www.openswatchbook.org/uri/2009/osb"
   xmlns:dc="http://purl.org/dc/elements/1.1/"
   xmlns:cc="http://creativecommons.org/ns#"
   xmlns:rdf="http://www.w3.org/1999/02/22-rdf-syntax-ns#"
   xmlns:svg="http://www.w3.org/2000/svg"
   xmlns="http://www.w3.org/2000/svg"
   xmlns:sodipodi="http://sodipodi.sourceforge.net/DTD/sodipodi-0.dtd"
   xmlns:inkscape="http://www.inkscape.org/namespaces/inkscape"
   width="412"
   height="300"
   id="svg2"
   version="1.1"
   inkscape:version="1.0.2-2 (e86c870879, 2021-01-15)"
   sodipodi:docname="right_all.svg"
   inkscape:export-filename="C:\work\bcore4\resource\images\capture_ring_left.png"
   inkscape:export-xdpi="90"
   inkscape:export-ydpi="90">
  <defs
     id="defs4">
    <linearGradient
       id="linearGradient5225"
       osb:paint="solid">
      <stop
         style="stop-color:#000000;stop-opacity:1;"
         offset="0"
         id="stop5227" />
    </linearGradient>
    <linearGradient
       id="linearGradient5207"
       osb:paint="solid">
      <stop
         style="stop-color:#000000;stop-opacity:1;"
         offset="0"
         id="stop5209" />
    </linearGradient>
  </defs>
  <sodipodi:namedview
     id="base"
     pagecolor="#ffffff"
     bordercolor="#666666"
     borderopacity="1.0"
     inkscape:pageopacity="0.0"
     inkscape:pageshadow="2"
     inkscape:zoom="1.6819444"
     inkscape:cx="170.98709"
     inkscape:cy="129.24474"
     inkscape:document-units="px"
     inkscape:current-layer="g3872"
     showgrid="false"
     inkscape:window-width="1366"
     inkscape:window-height="705"
     inkscape:window-x="-8"
     inkscape:window-y="-8"
     inkscape:window-maximized="1"
     inkscape:document-rotation="0" />
  <metadata
     id="metadata7">
    <rdf:RDF>
      <cc:Work
         rdf:about="">
        <dc:format>image/svg+xml</dc:format>
        <dc:type
           rdf:resource="http://purl.org/dc/dcmitype/StillImage" />
        <dc:title></dc:title>
      </cc:Work>
    </rdf:RDF>
  </metadata>
  <g
     inkscape:label="CaptureRingLeft"
     inkscape:groupmode="layer"
     id="g3880"
     transform="translate(0,-752.36218)"
     style="display:inline" />
  <g
     inkscape:label="CapturedMiddleLeft"
     inkscape:groupmode="layer"
     id="g3876"
     transform="translate(0,-752.36218)"
     style="display:inline" />
  <g
     inkscape:label="CaptureThumbLeft"
     inkscape:groupmode="layer"
     id="g3872"
     transform="translate(0,-752.36218)"
     style="display:inline" />
  <g
     inkscape:label="CaptureIndexLeft"
     inkscape:groupmode="layer"
     id="g3868"
     transform="translate(0,-752.36218)"
     style="display:inline" />
  <g
     style="display:inline"
     transform="translate(0,-752.36218)"
     id="g3851"
     inkscape:groupmode="layer"
     inkscape:label="CaptureRingRight">
    <path
       style="fill:#44e87e;fill-opacity:1;stroke:#44e87e;stroke-width:5.98758;stroke-linecap:round;stroke-linejoin:round;stroke-miterlimit:4;stroke-dasharray:none;stroke-opacity:1"
       d="m 356.34375,63.1875 c -1.45173,0.12341 -2.89403,0.693895 -4.21875,1.6875 -0.01,0.01112 -0.0214,0.0201 -0.0312,0.03125 -1.23324,1.390016 -2.47849,3.029662 -3.6875,4.90625 -0.78484,1.814702 -1.33777,4.011449 -1.5625,6.625 -1.75739,14.61094 -5.83514,28.90091 -9.9375,43 -3.59731,4.92165 -2.06783,15.13289 -4.79834,18.74146 8.35591,9.10009 13.20474,15.26659 22.86377,15.51953 1.02733,-10.42497 5.26672,-24.05031 5.52832,-34.60474 1.04028,-14.61077 2.39313,-29.18796 5.09375,-43.59375 0.5609,-8.258998 -4.31412,-12.732096 -9.25,-12.3125 z"
       transform="translate(0,752.36218)"
       id="path3859"
       inkscape:connector-curvature="0"
       sodipodi:nodetypes="ccccccccccsc" />
    <path
       style="fill:#44e87e;fill-opacity:1;stroke-width:0.59455"
       d="m 374.41458,162.64458 c -0.54077,-0.10573 -0.98322,-0.44016 -0.98322,-0.74319 0,-0.30302 -0.66887,-0.55095 -1.48638,-0.55095 -0.8175,0 -1.48637,-0.26755 -1.48637,-0.59455 0,-0.327 -0.26987,-0.59455 -0.5997,-0.59455 -0.32984,0 -1.70772,-0.80264 -3.06196,-1.78365 -1.35424,-0.98101 -2.75655,-1.78775 -3.11624,-1.79276 -0.35969,-0.005 -1.02705,-0.24533 -1.48303,-0.53407 -0.69029,-0.43709 -0.6311,-0.85851 0.35365,-2.51773 0.65049,-1.09602 1.54033,-2.92918 1.97741,-4.07369 0.43709,-1.14451 1.94433,-4.08753 3.34942,-6.54005 1.4051,-2.45252 4.17719,-8.60611 6.16021,-13.67465 7.13989,-18.24939 9.42494,-22.5929 11.88577,-22.5929 1.73507,0 4.66906,2.86286 5.37647,5.24613 0.59104,1.99121 0.30615,3.21759 -3.201,13.77947 -9.52506,28.68503 -12.66489,37.16659 -13.68503,36.96714 z"
       id="path1598"
       transform="translate(0,752.36218)" />
  </g>
  <g
     style="display:inline"
     transform="translate(0,-752.36218)"
     id="g3786"
     inkscape:groupmode="layer"
     inkscape:label="CapturedMiddleRight">
    <path
       inkscape:connector-curvature="0"
       id="path3794"
       d="m 318.3125,799.79969 c -4.41945,0.24776 -8.8946,2.96154 -9.53125,7.625 -0.57603,14.48447 -2.5765,28.96769 -2.625,43.4375 -0.24011,9.54059 -3.00172,18.81924 -2.28125,28.4375 0.019,2.05267 0.0457,4.14284 -0.35898,5.41466 0.35073,4.70285 -0.74852,5.11664 12.80489,6.24162 12.31076,1.02183 14.08499,1.83281 14.125,-12.71878 0.0359,-6.69274 0.0102,-13.4459 -1.35216,-20.0625 -1.04094,-17.04594 -2.03044,-34.10283 -1.65625,-51.1875 -0.35951,-5.20788 -4.70555,-7.43526 -9.125,-7.1875 z"
       style="fill:#44e87e;fill-opacity:1;stroke:#44e87e;stroke-width:5.98758;stroke-linecap:round;stroke-linejoin:round;stroke-miterlimit:4;stroke-dasharray:none;stroke-opacity:1"
       sodipodi:nodetypes="sccccscccs" />
  </g>
  <g
     style="display:inline"
     transform="translate(0,-752.36218)"
     id="g3835"
     inkscape:groupmode="layer"
     inkscape:label="CaptureThumbRight">
    <path
       style="fill:#44e87e;fill-opacity:1;stroke:#44e87e;stroke-width:5.98758;stroke-linecap:round;stroke-linejoin:round;stroke-miterlimit:4;stroke-dasharray:none;stroke-opacity:1"
       d="m 226.5625,129.3125 c -2.02316,0.0135 -4.03453,0.83489 -5.90625,2.78125 -3.45188,9.45854 6.464,13.99009 7.1875,21.65625 0.213,7.02295 3.65377,14.03774 5.96875,20.96875 2.45446,4.69538 4.5396,9.53499 6.4375,14.4375 9.44423,-3.64748 9.85701,-3.89189 12.87553,-6.83198 2.3138,-2.66055 5.21178,-7.15421 4.78072,-7.94927 -3.07802,-13.6317 -10.29882,-24.1762 -15.125,-32.875 -3.84291,-5.08139 -10.14928,-12.22796 -16.21875,-12.1875 z"
       transform="translate(0,752.36218)"
       id="path3843"
       inkscape:connector-curvature="0"
       sodipodi:nodetypes="scccccccs" />
  </g>
  <g
     style="display:inline"
     transform="translate(0,-752.36218)"
     id="g3819"
     inkscape:groupmode="layer"
     inkscape:label="CaptureIndexRight">
    <path
       style="fill:#44e87e;fill-opacity:1;stroke:#44e87e;stroke-width:5.98758;stroke-linecap:round;stroke-linejoin:round;stroke-miterlimit:4;stroke-dasharray:none;stroke-opacity:1"
       d="m 273.71875,56.71875 c -0.36644,0.0065 -0.76098,0.02189 -1.15625,0.0625 -11.03429,3.28108 -6.62587,17.16919 -7.46875,25.75 1.49062,11.03515 1.73107,22.17055 2.3125,33.28125 0.55475,8.06008 2.89391,15.74666 4.46875,23.625 5.76979,5.66286 11.14015,4.10386 16.2492,2.52565 4.66695,-1.44165 8.52333,-2.01601 10.2508,-8.8694 -0.61783,-1.07736 -1.1374,-2.62618 -1.4375,-4.75 -3.38549,-16.18358 -10.80174,-31.37638 -12.0625,-48.03125 -1.05307,-4.220595 -0.95335,-10.612912 -2.28125,-15.6875 -1.98687,-2.890332 -4.06141,-5.438384 -6.15625,-7.59375 -0.80796,-0.218656 -1.70879,-0.330341 -2.71875,-0.3125 z"
       transform="translate(0,752.36218)"
       id="path3827"
       inkscape:connector-curvature="0"
       sodipodi:nodetypes="sccccscccccs" />
  </g>
  <g
     inkscape:label="Hands"
     inkscape:groupmode="layer"
     id="layer1"
     transform="translate(0,-752.36218)"
     style="display:inline">
    <g
       id="g5262"
       transform="matrix(1.1728508,0,0,1.1728508,-342.9488,412.75912)">
      <g
         style="fill:none;stroke:#989898;stroke-linecap:round;stroke-linejoin:round;stroke-opacity:1"
         inkscape:label="Ebene 1"
         id="layer1-9"
         transform="matrix(1.0067989,0,0,1.0067989,124.86336,-414.10298)" />
    </g>
  </g>
</svg>
