<?xml version="1.0" encoding="UTF-8" standalone="no"?>
<svg
   xmlns:osb="http://www.openswatchbook.org/uri/2009/osb"
   xmlns:dc="http://purl.org/dc/elements/1.1/"
   xmlns:cc="http://creativecommons.org/ns#"
   xmlns:rdf="http://www.w3.org/1999/02/22-rdf-syntax-ns#"
   xmlns:svg="http://www.w3.org/2000/svg"
   xmlns="http://www.w3.org/2000/svg"
   xmlns:sodipodi="http://sodipodi.sourceforge.net/DTD/sodipodi-0.dtd"
   xmlns:inkscape="http://www.inkscape.org/namespaces/inkscape"
   width="412"
   height="300"
   id="svg2"
   version="1.1"
   inkscape:version="1.0.2-2 (e86c870879, 2021-01-15)"
   sodipodi:docname="right_ring.svg"
   inkscape:export-filename="C:\work\bcore4\resource\images\capture_ring_left.png"
   inkscape:export-xdpi="90"
   inkscape:export-ydpi="90">
  <defs
     id="defs4">
    <linearGradient
       id="linearGradient5225"
       osb:paint="solid">
      <stop
         style="stop-color:#000000;stop-opacity:1;"
         offset="0"
         id="stop5227" />
    </linearGradient>
    <linearGradient
       id="linearGradient5207"
       osb:paint="solid">
      <stop
         style="stop-color:#000000;stop-opacity:1;"
         offset="0"
         id="stop5209" />
    </linearGradient>
  </defs>
  <sodipodi:namedview
     id="base"
     pagecolor="#ffffff"
     bordercolor="#666666"
     borderopacity="1.0"
     inkscape:pageopacity="0.0"
     inkscape:pageshadow="2"
     inkscape:zoom="1.6819444"
     inkscape:cx="99.202358"
     inkscape:cy="164.60555"
     inkscape:document-units="px"
     inkscape:current-layer="g3851"
     showgrid="false"
     inkscape:window-width="1366"
     inkscape:window-height="705"
     inkscape:window-x="-8"
     inkscape:window-y="-8"
     inkscape:window-maximized="1"
     inkscape:document-rotation="0"
     inkscape:snap-bbox="false" />
  <metadata
     id="metadata7">
    <rdf:RDF>
      <cc:Work
         rdf:about="">
        <dc:format>image/svg+xml</dc:format>
        <dc:type
           rdf:resource="http://purl.org/dc/dcmitype/StillImage" />
        <dc:title></dc:title>
      </cc:Work>
    </rdf:RDF>
  </metadata>
  <g
     inkscape:label="CaptureRingLeft"
     inkscape:groupmode="layer"
     id="g3880"
     transform="translate(0,-752.36218)"
     style="display:none" />
  <g
     inkscape:label="CapturedMiddleLeft"
     inkscape:groupmode="layer"
     id="g3876"
     transform="translate(0,-752.36218)"
     style="display:inline" />
  <g
     inkscape:label="CaptureThumbLeft"
     inkscape:groupmode="layer"
     id="g3872"
     transform="translate(0,-752.36218)"
     style="display:inline" />
  <g
     inkscape:label="CaptureIndexLeft"
     inkscape:groupmode="layer"
     id="g3868"
     transform="translate(0,-752.36218)"
     style="display:inline" />
  <g
     style="display:inline"
     transform="translate(0,-752.36218)"
     id="g3851"
     inkscape:groupmode="layer"
     inkscape:label="CaptureRingRight">
    <path
       style="fill:#44e87e;fill-opacity:1;stroke:#44e87e;stroke-width:5.98758;stroke-linecap:round;stroke-linejoin:round;stroke-miterlimit:4;stroke-dasharray:none;stroke-opacity:1"
       d="m 356.34375,63.1875 c -1.45173,0.12341 -2.89403,0.693895 -4.21875,1.6875 -0.01,0.01112 -0.0214,0.0201 -0.0312,0.03125 -1.23324,1.390016 -2.47849,3.029662 -3.6875,4.90625 -0.78484,1.814702 -1.33777,4.011449 -1.5625,6.625 -1.75739,14.61094 -5.83514,28.90091 -9.9375,43 -3.59731,4.92165 -2.06783,15.13289 -4.79834,18.74146 8.35591,9.10009 13.20474,15.26659 22.86377,15.51953 1.02733,-10.42497 5.26672,-24.05031 5.52832,-34.60474 1.04028,-14.61077 2.39313,-29.18796 5.09375,-43.59375 0.5609,-8.258998 -4.31412,-12.732096 -9.25,-12.3125 z"
       transform="translate(0,752.36218)"
       id="path3859"
       inkscape:connector-curvature="0"
       sodipodi:nodetypes="ccccccccccsc" />
    <path
       style="fill:#0000ff;stroke-width:0.59455"
       d="m 349.08341,155.41931 c -1.37797,-0.43065 -3.65213,-1.45964 -5.05367,-2.28662 -2.82161,-1.66491 -14.73654,-13.50198 -14.73654,-14.64023 0,-0.39591 0.29994,-1.28028 0.66653,-1.96526 0.3666,-0.685 1.03292,-3.86675 1.48072,-7.07059 0.44779,-3.20383 1.24825,-6.97345 1.7788,-8.37692 3.38206,-8.94673 8.31317,-28.29366 10.04574,-39.413861 1.58587,-10.178729 2.05395,-11.866622 4.15665,-14.988947 3.37454,-5.010911 6.96654,-6.784365 11.87582,-5.863378 2.39565,0.449427 5.89072,3.246227 7.18539,5.749847 1.9667,3.803177 2.1747,7.103811 0.91787,14.565217 -1.49219,8.858728 -2.74091,19.866892 -3.91087,34.476572 -0.59474,7.42671 -1.72903,15.60576 -3.28344,23.67601 -1.30615,6.78128 -2.37481,12.96017 -2.37481,13.73086 0,3.12613 -3.42892,4.06969 -8.74819,2.4073 z"
       id="path206"
       transform="translate(0,752.36218)" />
  </g>
  <g
     style="display:inline"
     transform="translate(0,-752.36218)"
     id="g3786"
     inkscape:groupmode="layer"
     inkscape:label="CapturedMiddleRight" />
  <g
     style="display:inline"
     transform="translate(0,-752.36218)"
     id="g3835"
     inkscape:groupmode="layer"
     inkscape:label="CaptureThumbRight" />
  <g
     style="display:inline"
     transform="translate(0,-752.36218)"
     id="g3819"
     inkscape:groupmode="layer"
     inkscape:label="CaptureIndexRight" />
  <g
     inkscape:label="Hands"
     inkscape:groupmode="layer"
     id="layer1"
     transform="translate(0,-752.36218)"
     style="display:inline">
    <g
       id="g5262"
       transform="matrix(1.1728508,0,0,1.1728508,-342.9488,412.75912)">
      <g
         style="fill:none;stroke:#989898;stroke-linecap:round;stroke-linejoin:round;stroke-opacity:1"
         inkscape:label="Ebene 1"
         id="layer1-9"
         transform="matrix(1.0067989,0,0,1.0067989,124.86336,-414.10298)" />
    </g>
  </g>
</svg>
