<?xml version="1.0" encoding="UTF-8" standalone="no"?>
<svg
   xmlns:osb="http://www.openswatchbook.org/uri/2009/osb"
   xmlns:dc="http://purl.org/dc/elements/1.1/"
   xmlns:cc="http://creativecommons.org/ns#"
   xmlns:rdf="http://www.w3.org/1999/02/22-rdf-syntax-ns#"
   xmlns:svg="http://www.w3.org/2000/svg"
   xmlns="http://www.w3.org/2000/svg"
   xmlns:sodipodi="http://sodipodi.sourceforge.net/DTD/sodipodi-0.dtd"
   xmlns:inkscape="http://www.inkscape.org/namespaces/inkscape"
   width="412"
   height="300"
   id="svg2"
   version="1.1"
   inkscape:version="1.0.2-2 (e86c870879, 2021-01-15)"
   sodipodi:docname="right_little.svg"
   inkscape:export-filename="C:\work\bcore4\resource\images\capture_ring_left.png"
   inkscape:export-xdpi="90"
   inkscape:export-ydpi="90">
  <defs
     id="defs4">
    <linearGradient
       id="linearGradient5225"
       osb:paint="solid">
      <stop
         style="stop-color:#000000;stop-opacity:1;"
         offset="0"
         id="stop5227" />
    </linearGradient>
    <linearGradient
       id="linearGradient5207"
       osb:paint="solid">
      <stop
         style="stop-color:#000000;stop-opacity:1;"
         offset="0"
         id="stop5209" />
    </linearGradient>
  </defs>
  <sodipodi:namedview
     id="base"
     pagecolor="#ffffff"
     bordercolor="#666666"
     borderopacity="1.0"
     inkscape:pageopacity="0.0"
     inkscape:pageshadow="2"
     inkscape:zoom="1.6819444"
     inkscape:cx="169.88471"
     inkscape:cy="135.39445"
     inkscape:document-units="px"
     inkscape:current-layer="g3880"
     showgrid="false"
     inkscape:window-width="1366"
     inkscape:window-height="705"
     inkscape:window-x="-8"
     inkscape:window-y="-8"
     inkscape:window-maximized="1"
     inkscape:document-rotation="0" />
  <metadata
     id="metadata7">
    <rdf:RDF>
      <cc:Work
         rdf:about="">
        <dc:format>image/svg+xml</dc:format>
        <dc:type
           rdf:resource="http://purl.org/dc/dcmitype/StillImage" />
        <dc:title></dc:title>
      </cc:Work>
    </rdf:RDF>
  </metadata>
  <g
     inkscape:label="CaptureRingLeft"
     inkscape:groupmode="layer"
     id="g3880"
     transform="translate(0,-752.36218)"
     style="display:inline">
    <path
       style="fill:#44e87e;fill-opacity:1;stroke-width:0.59455"
       d="m 372.69653,161.92685 c -0.89496,-0.4472 -3.69307,-1.10946 -6.21803,-1.47168 -2.92477,-0.41958 -5.00452,-1.05809 -5.73075,-1.75941 -1.11668,-1.07836 -1.11113,-1.13627 0.27213,-2.83966 0.77663,-0.95637 1.99741,-3.03857 2.71285,-4.62711 0.71544,-1.58855 2.67431,-5.45433 4.35304,-8.59063 1.67873,-3.13629 4.75626,-10.14731 6.83896,-15.58002 6.98615,-18.22333 8.82204,-21.22516 12.27881,-20.07686 1.98945,0.66087 4.35292,3.97954 4.39108,6.16574 0.0341,1.952 -4.21681,15.34667 -10.60872,33.42846 -2.50112,7.07528 -4.71787,13.60299 -4.92613,14.50601 -0.42798,1.85575 -1.03533,2.00837 -3.36324,0.84516 z"
       id="path1478"
       transform="translate(0,752.36218)" />
    <path
       style="fill:#0000ff;stroke-width:0.59455"
       d="m 372.62625,161.61354 c -0.4905,-0.27473 -2.76466,-0.83777 -5.05367,-1.2512 -2.28902,-0.41344 -4.91412,-1.13235 -5.83357,-1.59759 l -1.67171,-0.8459 1.25182,-1.89804 c 2.76732,-4.19588 10.20553,-19.75179 14.26919,-29.84188 6.92253,-17.18871 8.90269,-20.33335 11.82047,-18.77179 1.80544,0.96624 3.64874,3.88961 3.6467,5.78347 -0.002,2.26389 -2.99148,11.90576 -9.9688,32.15672 -5.85658,16.9981 -6.14921,17.5607 -8.46043,16.26621 z"
       id="path52"
       transform="translate(0,752.36218)" />
  </g>
  <g
     inkscape:label="CapturedMiddleLeft"
     inkscape:groupmode="layer"
     id="g3876"
     transform="translate(0,-752.36218)"
     style="display:inline" />
  <g
     inkscape:label="CaptureThumbLeft"
     inkscape:groupmode="layer"
     id="g3872"
     transform="translate(0,-752.36218)"
     style="display:inline" />
  <g
     inkscape:label="CaptureIndexLeft"
     inkscape:groupmode="layer"
     id="g3868"
     transform="translate(0,-752.36218)"
     style="display:inline" />
  <g
     style="display:inline"
     transform="translate(0,-752.36218)"
     id="g3851"
     inkscape:groupmode="layer"
     inkscape:label="CaptureRingRight" />
  <g
     style="display:inline"
     transform="translate(0,-752.36218)"
     id="g3786"
     inkscape:groupmode="layer"
     inkscape:label="CapturedMiddleRight" />
  <g
     style="display:inline"
     transform="translate(0,-752.36218)"
     id="g3835"
     inkscape:groupmode="layer"
     inkscape:label="CaptureThumbRight" />
  <g
     style="display:inline"
     transform="translate(0,-752.36218)"
     id="g3819"
     inkscape:groupmode="layer"
     inkscape:label="CaptureIndexRight" />
  <g
     inkscape:label="Hands"
     inkscape:groupmode="layer"
     id="layer1"
     transform="translate(0,-752.36218)"
     style="display:inline">
    <g
       id="g5262"
       transform="matrix(1.1728508,0,0,1.1728508,-342.9488,412.75912)">
      <g
         style="fill:none;stroke:#989898;stroke-linecap:round;stroke-linejoin:round;stroke-opacity:1"
         inkscape:label="Ebene 1"
         id="layer1-9"
         transform="matrix(1.0067989,0,0,1.0067989,124.86336,-414.10298)" />
    </g>
  </g>
</svg>
