<?xml version="1.0" encoding="UTF-8" standalone="no"?>
<svg
   xmlns:osb="http://www.openswatchbook.org/uri/2009/osb"
   xmlns:dc="http://purl.org/dc/elements/1.1/"
   xmlns:cc="http://creativecommons.org/ns#"
   xmlns:rdf="http://www.w3.org/1999/02/22-rdf-syntax-ns#"
   xmlns:svg="http://www.w3.org/2000/svg"
   xmlns="http://www.w3.org/2000/svg"
   xmlns:sodipodi="http://sodipodi.sourceforge.net/DTD/sodipodi-0.dtd"
   xmlns:inkscape="http://www.inkscape.org/namespaces/inkscape"
   width="412"
   height="300"
   id="svg2"
   version="1.1"
   inkscape:version="1.0.2-2 (e86c870879, 2021-01-15)"
   sodipodi:docname="left_middle.svg"
   inkscape:export-filename="C:\work\bcore4\resource\images\capture_ring_left.png"
   inkscape:export-xdpi="90"
   inkscape:export-ydpi="90">
  <defs
     id="defs4">
    <linearGradient
       id="linearGradient5225"
       osb:paint="solid">
      <stop
         style="stop-color:#000000;stop-opacity:1;"
         offset="0"
         id="stop5227" />
    </linearGradient>
    <linearGradient
       id="linearGradient5207"
       osb:paint="solid">
      <stop
         style="stop-color:#000000;stop-opacity:1;"
         offset="0"
         id="stop5209" />
    </linearGradient>
  </defs>
  <sodipodi:namedview
     id="base"
     pagecolor="#ffffff"
     bordercolor="#666666"
     borderopacity="1.0"
     inkscape:pageopacity="0.0"
     inkscape:pageshadow="2"
     inkscape:zoom="1.6819444"
     inkscape:cx="99.202358"
     inkscape:cy="164.60555"
     inkscape:document-units="px"
     inkscape:current-layer="g3876"
     showgrid="false"
     inkscape:window-width="1366"
     inkscape:window-height="705"
     inkscape:window-x="-8"
     inkscape:window-y="-8"
     inkscape:window-maximized="1"
     inkscape:document-rotation="0"
     inkscape:snap-bbox="false" />
  <metadata
     id="metadata7">
    <rdf:RDF>
      <cc:Work
         rdf:about="">
        <dc:format>image/svg+xml</dc:format>
        <dc:type
           rdf:resource="http://purl.org/dc/dcmitype/StillImage" />
        <dc:title></dc:title>
      </cc:Work>
    </rdf:RDF>
  </metadata>
  <g
     inkscape:label="CaptureRingLeft"
     inkscape:groupmode="layer"
     id="g3880"
     transform="translate(0,-752.36218)"
     style="display:inline" />
  <g
     inkscape:label="CapturedMiddleLeft"
     inkscape:groupmode="layer"
     id="g3876"
     transform="translate(0,-752.36218)"
     style="display:inline">
    <path
       sodipodi:nodetypes="sccccscccs"
       style="fill:#44e87e;fill-opacity:1;stroke:#44e87e;stroke-width:5.98758;stroke-linecap:round;stroke-linejoin:round;stroke-miterlimit:4;stroke-dasharray:none;stroke-opacity:1"
       d="m 96.833954,799.79969 c 4.419446,0.24776 8.894596,2.96154 9.531246,7.625 0.57603,14.48447 2.5765,28.96769 2.625,43.4375 0.24011,9.54059 3.00172,18.81924 2.28125,28.4375 -0.019,2.05267 -0.0457,4.14284 0.35898,5.41466 -0.35073,4.70285 0.74852,5.11664 -12.804886,6.24162 -12.31076,1.02183 -14.08499,1.83281 -14.125,-12.71878 -0.0359,-6.69274 -0.0102,-13.4459 1.35216,-20.0625 1.04094,-17.04594 2.03044,-34.10283 1.65625,-51.1875 0.35951,-5.20788 4.70555,-7.43526 9.125,-7.1875 z"
       id="path3878"
       inkscape:connector-curvature="0" />
    <path
       style="fill:#0000ff;stroke-width:0.59455"
       d="m 88.287937,141.41207 c -2.116166,-0.64753 -3.791935,-2.13635 -5.010688,-4.45169 -1.435271,-2.72667 -1.696572,-17.15446 -0.502667,-27.75476 1.24535,-11.057066 2.155218,-29.646484 2.171634,-44.368417 0.01136,-10.186964 0.158894,-12.030956 1.134479,-14.179538 3.398982,-7.485753 15.910915,-7.714494 21.062235,-0.385056 1.57045,2.234483 1.7513,3.049494 2.2356,10.074861 0.28981,4.20404 0.92752,12.994659 1.41714,19.534709 0.48962,6.540049 0.89067,13.905151 0.89123,16.366893 5.5e-4,2.461741 0.5361,8.741558 1.19011,13.955158 1.29752,10.34362 1.59637,25.1801 0.54669,27.14144 -0.35332,0.66019 -1.5267,1.56983 -2.60751,2.02142 -3.39123,1.41695 -19.732888,2.90034 -22.528253,2.04498 z"
       id="path96"
       transform="translate(0,752.36218)" />
  </g>
  <g
     inkscape:label="CaptureThumbLeft"
     inkscape:groupmode="layer"
     id="g3872"
     transform="translate(0,-752.36218)"
     style="display:inline" />
  <g
     inkscape:label="CaptureIndexLeft"
     inkscape:groupmode="layer"
     id="g3868"
     transform="translate(0,-752.36218)"
     style="display:inline" />
  <g
     style="display:inline"
     transform="translate(0,-752.36218)"
     id="g3851"
     inkscape:groupmode="layer"
     inkscape:label="CaptureRingRight" />
  <g
     style="display:inline"
     transform="translate(0,-752.36218)"
     id="g3786"
     inkscape:groupmode="layer"
     inkscape:label="CapturedMiddleRight" />
  <g
     style="display:inline"
     transform="translate(0,-752.36218)"
     id="g3835"
     inkscape:groupmode="layer"
     inkscape:label="CaptureThumbRight" />
  <g
     style="display:inline"
     transform="translate(0,-752.36218)"
     id="g3819"
     inkscape:groupmode="layer"
     inkscape:label="CaptureIndexRight" />
  <g
     inkscape:label="Hands"
     inkscape:groupmode="layer"
     id="layer1"
     transform="translate(0,-752.36218)"
     style="display:inline">
    <g
       id="g5262"
       transform="matrix(1.1728508,0,0,1.1728508,-342.9488,412.75912)">
      <g
         style="fill:none;stroke:#989898;stroke-linecap:round;stroke-linejoin:round;stroke-opacity:1"
         inkscape:label="Ebene 1"
         id="layer1-9"
         transform="matrix(1.0067989,0,0,1.0067989,124.86336,-414.10298)" />
    </g>
  </g>
</svg>
