<?xml version="1.0" encoding="UTF-8" standalone="no"?>
<svg
   xmlns:osb="http://www.openswatchbook.org/uri/2009/osb"
   xmlns:dc="http://purl.org/dc/elements/1.1/"
   xmlns:cc="http://creativecommons.org/ns#"
   xmlns:rdf="http://www.w3.org/1999/02/22-rdf-syntax-ns#"
   xmlns:svg="http://www.w3.org/2000/svg"
   xmlns="http://www.w3.org/2000/svg"
   xmlns:sodipodi="http://sodipodi.sourceforge.net/DTD/sodipodi-0.dtd"
   xmlns:inkscape="http://www.inkscape.org/namespaces/inkscape"
   width="412"
   height="300"
   id="svg2"
   version="1.1"
   inkscape:version="1.0.2-2 (e86c870879, 2021-01-15)"
   sodipodi:docname="right_index.svg"
   inkscape:export-filename="C:\work\bcore4\resource\images\capture_ring_left.png"
   inkscape:export-xdpi="90"
   inkscape:export-ydpi="90">
  <defs
     id="defs4">
    <linearGradient
       id="linearGradient5225"
       osb:paint="solid">
      <stop
         style="stop-color:#000000;stop-opacity:1;"
         offset="0"
         id="stop5227" />
    </linearGradient>
    <linearGradient
       id="linearGradient5207"
       osb:paint="solid">
      <stop
         style="stop-color:#000000;stop-opacity:1;"
         offset="0"
         id="stop5209" />
    </linearGradient>
  </defs>
  <sodipodi:namedview
     id="base"
     pagecolor="#ffffff"
     bordercolor="#666666"
     borderopacity="1.0"
     inkscape:pageopacity="0.0"
     inkscape:pageshadow="2"
     inkscape:zoom="1.6819444"
     inkscape:cx="99.202358"
     inkscape:cy="164.60555"
     inkscape:document-units="px"
     inkscape:current-layer="g3819"
     showgrid="false"
     inkscape:window-width="1366"
     inkscape:window-height="705"
     inkscape:window-x="-8"
     inkscape:window-y="-8"
     inkscape:window-maximized="1"
     inkscape:document-rotation="0"
     inkscape:snap-bbox="false" />
  <metadata
     id="metadata7">
    <rdf:RDF>
      <cc:Work
         rdf:about="">
        <dc:format>image/svg+xml</dc:format>
        <dc:type
           rdf:resource="http://purl.org/dc/dcmitype/StillImage" />
        <dc:title></dc:title>
      </cc:Work>
    </rdf:RDF>
  </metadata>
  <g
     inkscape:label="CaptureRingLeft"
     inkscape:groupmode="layer"
     id="g3880"
     transform="translate(0,-752.36218)"
     style="display:none" />
  <g
     inkscape:label="CapturedMiddleLeft"
     inkscape:groupmode="layer"
     id="g3876"
     transform="translate(0,-752.36218)"
     style="display:inline" />
  <g
     inkscape:label="CaptureThumbLeft"
     inkscape:groupmode="layer"
     id="g3872"
     transform="translate(0,-752.36218)"
     style="display:inline" />
  <g
     inkscape:label="CaptureIndexLeft"
     inkscape:groupmode="layer"
     id="g3868"
     transform="translate(0,-752.36218)"
     style="display:inline" />
  <g
     style="display:inline"
     transform="translate(0,-752.36218)"
     id="g3851"
     inkscape:groupmode="layer"
     inkscape:label="CaptureRingRight" />
  <g
     style="display:inline"
     transform="translate(0,-752.36218)"
     id="g3786"
     inkscape:groupmode="layer"
     inkscape:label="CapturedMiddleRight" />
  <g
     style="display:inline"
     transform="translate(0,-752.36218)"
     id="g3835"
     inkscape:groupmode="layer"
     inkscape:label="CaptureThumbRight" />
  <g
     style="display:inline"
     transform="translate(0,-752.36218)"
     id="g3819"
     inkscape:groupmode="layer"
     inkscape:label="CaptureIndexRight">
    <path
       style="fill:#44e87e;fill-opacity:1;stroke:#44e87e;stroke-width:5.98758;stroke-linecap:round;stroke-linejoin:round;stroke-miterlimit:4;stroke-dasharray:none;stroke-opacity:1"
       d="m 273.71875,56.71875 c -0.36644,0.0065 -0.76098,0.02189 -1.15625,0.0625 -11.03429,3.28108 -6.62587,17.16919 -7.46875,25.75 1.49062,11.03515 1.73107,22.17055 2.3125,33.28125 0.55475,8.06008 2.89391,15.74666 4.46875,23.625 5.76979,5.66286 11.14015,4.10386 16.2492,2.52565 4.66695,-1.44165 8.52333,-2.01601 10.2508,-8.8694 -0.61783,-1.07736 -1.1374,-2.62618 -1.4375,-4.75 -3.38549,-16.18358 -10.80174,-31.37638 -12.0625,-48.03125 -1.05307,-4.220595 -0.95335,-10.612912 -2.28125,-15.6875 -1.98687,-2.890332 -4.06141,-5.438384 -6.15625,-7.59375 -0.80796,-0.218656 -1.70879,-0.330341 -2.71875,-0.3125 z"
       transform="translate(0,752.36218)"
       id="path3827"
       inkscape:connector-curvature="0"
       sodipodi:nodetypes="sccccscccccs" />
    <path
       style="fill:#0000ff;stroke-width:0.59455"
       d="m 276.30992,145.39047 c -2.24258,-0.8392 -5.22843,-2.77146 -6.32519,-4.09325 -0.35183,-0.42402 -1.61454,-5.30407 -2.80603,-10.84456 -1.8857,-8.76864 -2.2788,-12.04842 -3.0345,-25.31765 -0.47749,-8.384218 -1.06384,-16.960915 -1.30302,-19.059331 -0.23917,-2.098415 -0.43485,-7.828513 -0.43485,-12.73355 0,-8.600188 0.0604,-9.041254 1.69357,-12.367231 2.53449,-5.161511 6.96393,-7.638817 11.9768,-6.698398 1.72214,0.323077 2.77205,1.219647 5.6094,4.790145 3.90381,4.912541 3.61674,3.867672 5.96403,21.707359 1.25465,9.535496 2.52826,14.818139 7.59712,31.511146 3.80601,12.5341 5.76122,20.90669 5.3059,22.72083 -0.55766,2.22189 -2.8952,5.35622 -5.10542,6.84569 -4.58532,3.09005 -15.12768,5.03945 -19.13781,3.5388 z"
       id="path228"
       transform="translate(0,752.36218)" />
  </g>
  <g
     inkscape:label="Hands"
     inkscape:groupmode="layer"
     id="layer1"
     transform="translate(0,-752.36218)"
     style="display:inline">
    <g
       id="g5262"
       transform="matrix(1.1728508,0,0,1.1728508,-342.9488,412.75912)">
      <g
         style="fill:none;stroke:#989898;stroke-linecap:round;stroke-linejoin:round;stroke-opacity:1"
         inkscape:label="Ebene 1"
         id="layer1-9"
         transform="matrix(1.0067989,0,0,1.0067989,124.86336,-414.10298)" />
    </g>
  </g>
</svg>
