<?xml version="1.0" encoding="UTF-8" standalone="no"?>
<svg
   xmlns:osb="http://www.openswatchbook.org/uri/2009/osb"
   xmlns:dc="http://purl.org/dc/elements/1.1/"
   xmlns:cc="http://creativecommons.org/ns#"
   xmlns:rdf="http://www.w3.org/1999/02/22-rdf-syntax-ns#"
   xmlns:svg="http://www.w3.org/2000/svg"
   xmlns="http://www.w3.org/2000/svg"
   xmlns:sodipodi="http://sodipodi.sourceforge.net/DTD/sodipodi-0.dtd"
   xmlns:inkscape="http://www.inkscape.org/namespaces/inkscape"
   width="412"
   height="300"
   id="svg2"
   version="1.1"
   inkscape:version="1.0.2-2 (e86c870879, 2021-01-15)"
   sodipodi:docname="left_index.svg"
   inkscape:export-filename="C:\work\bcore4\resource\images\capture_ring_left.png"
   inkscape:export-xdpi="90"
   inkscape:export-ydpi="90">
  <defs
     id="defs4">
    <linearGradient
       id="linearGradient5225"
       osb:paint="solid">
      <stop
         style="stop-color:#000000;stop-opacity:1;"
         offset="0"
         id="stop5227" />
    </linearGradient>
    <linearGradient
       id="linearGradient5207"
       osb:paint="solid">
      <stop
         style="stop-color:#000000;stop-opacity:1;"
         offset="0"
         id="stop5209" />
    </linearGradient>
  </defs>
  <sodipodi:namedview
     id="base"
     pagecolor="#ffffff"
     bordercolor="#666666"
     borderopacity="1.0"
     inkscape:pageopacity="0.0"
     inkscape:pageshadow="2"
     inkscape:zoom="1.6819444"
     inkscape:cx="99.202358"
     inkscape:cy="164.60555"
     inkscape:document-units="px"
     inkscape:current-layer="g3868"
     showgrid="false"
     inkscape:window-width="1366"
     inkscape:window-height="705"
     inkscape:window-x="-8"
     inkscape:window-y="-8"
     inkscape:window-maximized="1"
     inkscape:document-rotation="0"
     inkscape:snap-bbox="false" />
  <metadata
     id="metadata7">
    <rdf:RDF>
      <cc:Work
         rdf:about="">
        <dc:format>image/svg+xml</dc:format>
        <dc:type
           rdf:resource="http://purl.org/dc/dcmitype/StillImage" />
        <dc:title></dc:title>
      </cc:Work>
    </rdf:RDF>
  </metadata>
  <g
     inkscape:label="CaptureRingLeft"
     inkscape:groupmode="layer"
     id="g3880"
     transform="translate(0,-752.36218)"
     style="display:inline" />
  <g
     inkscape:label="CapturedMiddleLeft"
     inkscape:groupmode="layer"
     id="g3876"
     transform="translate(0,-752.36218)"
     style="display:inline" />
  <g
     inkscape:label="CaptureThumbLeft"
     inkscape:groupmode="layer"
     id="g3872"
     transform="translate(0,-752.36218)"
     style="display:inline" />
  <g
     inkscape:label="CaptureIndexLeft"
     inkscape:groupmode="layer"
     id="g3868"
     transform="translate(0,-752.36218)"
     style="display:inline">
    <path
       sodipodi:nodetypes="sccccscccccs"
       inkscape:connector-curvature="0"
       id="path3870"
       d="m 141.37007,809.29114 c 0.36644,0.007 0.76098,0.0219 1.15625,0.0625 11.03429,3.28108 6.62587,17.16919 7.46875,25.75 -1.49062,11.03515 -1.73107,22.17055 -2.3125,33.28125 -0.55475,8.06008 -2.89391,15.74666 -4.46875,23.625 -5.76979,5.66286 -11.14015,4.10386 -16.2492,2.52565 -4.66695,-1.44165 -8.52333,-2.01601 -10.2508,-8.8694 0.61783,-1.07736 1.1374,-2.62618 1.4375,-4.75 3.38549,-16.18358 10.80174,-31.37638 12.0625,-48.03125 1.05307,-4.22059 0.95335,-10.61291 2.28125,-15.6875 1.98687,-2.89033 4.06141,-5.43838 6.15625,-7.59375 0.80796,-0.21866 1.70879,-0.33034 2.71875,-0.3125 z"
       style="fill:#44e87e;fill-opacity:1;stroke:#44e87e;stroke-width:5.98758;stroke-linecap:round;stroke-linejoin:round;stroke-miterlimit:4;stroke-dasharray:none;stroke-opacity:1" />
    <path
       style="fill:#0000ff;stroke-width:0.59455"
       d="m 126.25438,144.76374 c -5.46185,-1.7816 -7.56389,-2.92158 -9.39088,-5.09283 -2.25947,-2.68523 -3.07985,-5.67091 -2.2767,-8.28584 0.36408,-1.18538 1.1956,-4.32882 1.84782,-6.9854 0.65223,-2.65659 2.65316,-9.63294 4.44652,-15.503 4.51973,-14.794047 5.46391,-19.034987 7.12654,-32.010014 0.79775,-6.225572 1.70889,-11.977843 2.02476,-12.782824 0.31586,-0.804982 2.05413,-3.243378 3.86282,-5.41866 4.06214,-4.885491 6.17209,-5.53466 11.09944,-3.414972 3.76602,1.620101 6.17241,4.675525 7.16082,9.09219 0.77832,3.4779 0.52698,17.399973 -0.58072,32.167188 -0.36793,4.905042 -0.93396,12.797692 -1.25784,17.539222 -0.67584,9.89402 -3.94217,26.07713 -5.64252,27.956 -0.57266,0.63277 -2.39538,1.82532 -4.0505,2.6501 -3.87721,1.93209 -8.62865,1.96147 -14.36956,0.0888 z"
       id="path118"
       transform="translate(0,752.36218)" />
  </g>
  <g
     style="display:inline"
     transform="translate(0,-752.36218)"
     id="g3851"
     inkscape:groupmode="layer"
     inkscape:label="CaptureRingRight" />
  <g
     style="display:inline"
     transform="translate(0,-752.36218)"
     id="g3786"
     inkscape:groupmode="layer"
     inkscape:label="CapturedMiddleRight" />
  <g
     style="display:inline"
     transform="translate(0,-752.36218)"
     id="g3835"
     inkscape:groupmode="layer"
     inkscape:label="CaptureThumbRight" />
  <g
     style="display:inline"
     transform="translate(0,-752.36218)"
     id="g3819"
     inkscape:groupmode="layer"
     inkscape:label="CaptureIndexRight" />
  <g
     inkscape:label="Hands"
     inkscape:groupmode="layer"
     id="layer1"
     transform="translate(0,-752.36218)"
     style="display:inline">
    <g
       id="g5262"
       transform="matrix(1.1728508,0,0,1.1728508,-342.9488,412.75912)">
      <g
         style="fill:none;stroke:#989898;stroke-linecap:round;stroke-linejoin:round;stroke-opacity:1"
         inkscape:label="Ebene 1"
         id="layer1-9"
         transform="matrix(1.0067989,0,0,1.0067989,124.86336,-414.10298)" />
    </g>
  </g>
</svg>
